<svg width="20" height="20" viewBox="0 0 20 20" fill="none" xmlns="http://www.w3.org/2000/svg">
<path d="M6.43739 12.2968C6.82301 11.9883 7.38457 12.0485 7.69634 12.4299C7.69815 12.432 7.70294 12.4375 7.71071 12.446C7.72762 12.4645 7.7583 12.4968 7.80266 12.5383C7.89173 12.6218 8.03335 12.7406 8.22661 12.8614C8.60956 13.1008 9.19652 13.3496 9.99961 13.3496C10.8027 13.3496 11.3897 13.1008 11.7726 12.8614C11.9659 12.7406 12.1075 12.6218 12.1966 12.5383C12.2409 12.4968 12.2716 12.4645 12.2885 12.446L12.3004 12.4327L12.3029 12.4299C12.6147 12.0485 13.1762 11.9883 13.5618 12.2968C13.95 12.6073 14.0129 13.1737 13.7024 13.5618L12.9996 12.9996C13.7024 13.5618 13.7024 13.5618 13.7024 13.5618L13.7013 13.5632L13.7001 13.5648L13.6973 13.5681L13.6906 13.5763L13.6725 13.5979C13.6583 13.6145 13.6398 13.6357 13.617 13.6606C13.5714 13.7105 13.5083 13.7759 13.4277 13.8515C13.2667 14.0024 13.0334 14.1961 12.7266 14.3878C12.1096 14.7735 11.1965 15.1496 9.99961 15.1496C8.8027 15.1496 7.88966 14.7735 7.27261 14.3878C6.96587 14.1961 6.73249 14.0024 6.57157 13.8515C6.49092 13.7759 6.42786 13.7105 6.38226 13.6606C6.35944 13.6357 6.34093 13.6145 6.32671 13.5979L6.30858 13.5763L6.30191 13.5681L6.29917 13.5648L6.29795 13.5632C6.29795 13.5632 6.29683 13.5618 6.99961 12.9996L6.29683 13.5618C5.98632 13.1737 6.04925 12.6073 6.43739 12.2968Z" fill="#C5D0DB"/>
<path d="M8.2496 8.2496C8.2496 8.93996 7.68996 9.4996 6.9996 9.4996C6.30925 9.4996 5.7496 8.93996 5.7496 8.2496C5.7496 7.55925 6.30925 6.9996 6.9996 6.9996C7.68996 6.9996 8.2496 7.55925 8.2496 8.2496Z" fill="#C5D0DB"/>
<path d="M12.9996 9.4996C13.69 9.4996 14.2496 8.93996 14.2496 8.2496C14.2496 7.55925 13.69 6.9996 12.9996 6.9996C12.3092 6.9996 11.7496 7.55925 11.7496 8.2496C11.7496 8.93996 12.3092 9.4996 12.9996 9.4996Z" fill="#C5D0DB"/>
<path fill-rule="evenodd" clip-rule="evenodd" d="M9.99961 0.0996094C4.53199 0.0996094 0.0996094 4.53199 0.0996094 9.99961C0.0996094 15.4672 4.53199 19.8996 9.99961 19.8996C15.4672 19.8996 19.8996 15.4672 19.8996 9.99961C19.8996 4.53199 15.4672 0.0996094 9.99961 0.0996094ZM1.89961 9.99961C1.89961 5.5261 5.5261 1.89961 9.99961 1.89961C14.4731 1.89961 18.0996 5.5261 18.0996 9.99961C18.0996 14.4731 14.4731 18.0996 9.99961 18.0996C5.5261 18.0996 1.89961 14.4731 1.89961 9.99961Z" fill="#C5D0DB"/>
</svg>
